<svg xmlns="http://www.w3.org/2000/svg" width="122.806" height="120.438" viewBox="0 0 122.806 120.438" overflow="visible" xml:space="preserve">
  <path d="m37.079 67.019.002.012.111-.031q.273-.056.535-.14l15.908-4.183a8.2 8.2 0 0 1-.322-2.262c0-.133.014-.262.02-.393l-7.421-2.239c-1.883-.567-2.385-1.449-2.136-2.276.25-.826 1.156-1.285 3.039-.717l7.254 2.188c.4-.87.942-1.661 1.604-2.337l-10.56-12.198a5.47 5.47 0 0 0-2.694-1.823 5.485 5.485 0 0 0-6.836 3.668 5.45 5.45 0 0 0 .079 3.395 5.45 5.45 0 0 0-2.01-1.112 5.486 5.486 0 0 0-3.169 10.503 5.5 5.5 0 0 0 2.29.185 5.45 5.45 0 0 0-1.943 2.785 5.485 5.485 0 0 0 6.249 6.975m25.861-14.73a8.2 8.2 0 0 1 2.751.99l8.579-13.555a5.485 5.485 0 0 0-4.518-8.591 5.47 5.47 0 0 0-3.229 1.057c.31-.686.485-1.445.485-2.246a5.485 5.485 0 0 0-10.971 0c0 .801.176 1.561.484 2.246a5.46 5.46 0 0 0-3.227-1.057 5.486 5.486 0 0 0-5.486 5.485c0 .905.223 1.758.612 2.511l-.01.006.06.098q.133.243.289.472l8.419 13.73a8.2 8.2 0 0 1 2.633-1.079v-7.437c0-1.967.7-2.702 1.563-2.702s1.563.735 1.563 2.702v7.37zm21.602 18.787.005-.011-.104-.046a5 5 0 0 0-.507-.226L68.93 64.115a8.3 8.3 0 0 1-1.529 2.129l4.474 6.511c1.114 1.621.954 2.623.242 3.112s-1.706.279-2.819-1.342l-4.484-6.527a8.2 8.2 0 0 1-2.538.631l.624 16.594a5.485 5.485 0 0 0 8.59 4.522 5.47 5.47 0 0 0 2.062-2.698 5.485 5.485 0 1 0 8.243-5.664 5.45 5.45 0 0 0 3.258-.957 5.485 5.485 0 0 0 1.416-7.627 5.5 5.5 0 0 0-1.927-1.723M96.324 50.56a5.484 5.484 0 0 0-8.823-2.636 5.46 5.46 0 0 0 .111-3.394 5.487 5.487 0 0 0-6.803-3.73 5.44 5.44 0 0 0-2.238 1.291l-.009-.009-.077.085a6 6 0 0 0-.371.41L67.301 54.493a8.3 8.3 0 0 1 1.65 2.268l7.252-2.114c1.889-.551 2.79-.085 3.031.744s-.268 1.707-2.156 2.258l-7.297 2.128c.016.212.032.424.032.64a8.2 8.2 0 0 1-.288 2.128l15.713 4.526a5.46 5.46 0 0 0 3.252.059 5.487 5.487 0 0 0 3.73-6.802 5.45 5.45 0 0 0-1.918-2.803 5.484 5.484 0 0 0 6.022-6.965M53.649 74.502c-1.153 1.594-2.15 1.779-2.85 1.272-.699-.507-.836-1.513.317-3.106l4.634-6.4a8.3 8.3 0 0 1-1.551-2.147l-15.306 6.113a5.46 5.46 0 0 0-2.604 1.948 5.486 5.486 0 0 0 1.227 7.66 5.45 5.45 0 0 0 3.233 1.037 5.484 5.484 0 1 0 8.103 5.863 5.45 5.45 0 0 0 1.995 2.748 5.484 5.484 0 0 0 8.636-3.621l.012.002.008-.114q.036-.277.042-.552l1.271-16.58a8.2 8.2 0 0 1-2.47-.613z"/>
  <circle cx="61.563" cy="60.916" r="5.246"/>
  <path d="m76.657 22.635-.187-.084c-4.667-1.816-9.498-2.734-14.808-2.734a41.4 41.4 0 0 0-15.116 2.838l-.018.017c-7.903 3.119-5.246 8.286-5.246 8.286.377.986 1.318 1.625 2.438 1.625a2.62 2.62 0 0 0 .433-5.206l.016-.02s-3.178-.968 9.567-4.679l-.035-.001a39.3 39.3 0 0 1 7.976-.816c2.856 0 5.636.322 8.319.903 12.386 3.639 8.7 4.593 8.7 4.593l.016.02a2.62 2.62 0 0 0-2.192 2.581 2.626 2.626 0 0 0 2.625 2.625 2.62 2.62 0 0 0 2.445-1.689l.031.037c0-.001 3.038-5.182-4.964-8.296m26.222 40.974.021-.203c.277-5.001-.352-9.878-2-14.925a41.4 41.4 0 0 0-7.393-13.487l-.021-.012c-5.42-6.544-9.506-2.412-9.506-2.412-.82.664-1.135 1.758-.787 2.821a2.626 2.626 0 0 0 3.311 1.68 2.62 2.62 0 0 0 1.771-2.886l.023.009s-.066-3.321 7.42 7.641l-.01-.033a39.3 39.3 0 0 1 3.253 7.327 39.3 39.3 0 0 1 1.726 8.188c.389 12.903-1.664 9.696-1.664 9.696l-.014.021a2.62 2.62 0 0 0-3.134-1.282 2.62 2.62 0 0 0 .685 5.11l-.026.041c.001 0 5.87 1.28 6.345-7.294m-31.668 37.87.2-.039c4.866-1.185 9.351-3.201 13.702-6.243A41.4 41.4 0 0 0 95.877 84.21l.005-.023c4.69-7.085-.448-9.797-.448-9.797-.874-.593-2.012-.576-2.93.064a2.624 2.624 0 0 0-.646 3.655 2.62 2.62 0 0 0 3.275.859l-.001.025s3.159-1.027-5.16 9.316l.028-.018a39.3 39.3 0 0 1-6.068 5.239 39 39 0 0 1-7.336 4.026c-12.235 4.114-9.762 1.221-9.762 1.221l-.024-.007a2.62 2.62 0 0 0-3.337-4.018 2.615 2.615 0 0 0-1.036 2.785l-.046-.013s.476 5.988 8.82 3.955m-44.909-18.46.1.179c2.649 4.25 5.969 7.878 10.221 11.058a41.4 41.4 0 0 0 13.806 6.78l.024-.003c8.198 2.235 9.164-3.495 9.164-3.495.289-1.015-.083-2.091-.979-2.761a2.62 2.62 0 0 0-3.464 3.911l-.024.006s1.965 2.679-10.464-1.982l.027.021a39.3 39.3 0 0 1-6.876-4.122 39.3 39.3 0 0 1-6.122-5.705c-7.74-10.332-4.217-8.889-4.217-8.889l-.001-.025a2.62 2.62 0 0 0 3.301-.754 2.625 2.625 0 0 0-.53-3.675 2.62 2.62 0 0 0-2.969-.111l-.002-.048c-.002-.001-5.538 2.328-.995 9.615m3.196-48.107-.137.152c-3.167 3.879-5.529 8.193-7.166 13.243a41.4 41.4 0 0 0-1.959 15.256l.01.021c.531 8.48 6.267 7.544 6.267 7.544 1.054-.054 1.952-.753 2.297-1.817a2.62 2.62 0 0 0-4.82-2.016l-.014-.021s-1.901 2.725-1.502-10.543l-.012.032a39.4 39.4 0 0 1 1.681-7.838 39.2 39.2 0 0 1 3.423-7.637c7.28-10.66 7.051-6.86 7.051-6.86l.024-.01A2.62 2.62 0 0 0 36.42 37.3a2.62 2.62 0 0 0 2.454-4.535l.044-.018c.001.001-3.991-4.487-9.42 2.165"/>
  <path d="M84.143 25.957s-1.797-8.624-22.547-8.624-23.402 8.603-23.402 8.603-6.525-9.428-6.525-11.301C31.668 7.583 39.429 0 61.596 0s29.469 7.749 29.469 14.666c-.001 1.887-6.922 11.291-6.922 11.291m17.65 46.088s7.662-4.348 1.318-24.104-15.344-19.652-15.344-19.652 6.981-9.095 8.765-9.668c6.715-2.155 16.307 2.915 23.084 24.021 6.776 21.106 1.631 30.427-4.955 32.542-1.798.576-12.868-3.139-12.868-3.139M63.63 102.923s6.528 5.916 23.306-6.293 13.86-20.726 13.86-20.726 10.823 3.784 11.926 5.299c4.149 5.701 2.336 16.399-15.587 29.442-17.925 13.043-28.388 11.073-32.458 5.48-1.111-1.525-1.047-13.202-1.047-13.202M22.133 75.757s-3.696 7.997 12.968 20.361 23.92 7.036 23.92 7.036-.378 11.459-1.494 12.964c-4.201 5.663-14.953 7.129-32.754-6.08C6.971 96.829 5.725 86.256 9.846 80.7c1.125-1.514 12.287-4.943 12.287-4.943m12.892-47.212s-8.756-.969-15.196 18.757c-6.441 19.726.915 24.917.915 24.917S9.756 75.495 7.975 74.914C1.272 72.726-3.528 62.995 3.352 41.922 10.231 20.85 19.863 16.313 26.439 18.46c1.793.586 8.586 10.085 8.586 10.085"/>
  <style type="text/css">
    path, circle {
      fill: #000;
    }
    @media (prefers-color-scheme: dark) {
      path, circle {
        fill: #FFF;
      }
    }
  </style>
</svg>
